# xmcd
#
# Track frame offsets:
#	150
#	12293
#	27620
#	41740
#	53348
#	64454
#	86697
#	100412
#	117632
#	131529
#
# Disc length: 1880 seconds
#
# Revision: 1
# Processed by: cddbd v1.4PL0 Copyright (c) Steve Scherf et al.
# Submitted via: audiograbber 1.80
#
DISCID=8b07560a
DTITLE=The Durham Family - Dear Lord Thank You
DYEAR=1900
DGENRE=
TTITLE0=Dear Lord Thank You
TTITLE1=Who Am I?
TTITLE2=He Made Something Out Of Nothing
TTITLE3=Tis So Sweet To Trust In Jesus
TTITLE4=House of Gold
TTITLE5=How Great Thou Art
TTITLE6=Near to Thee
TTITLE7=Joy In The Morning
TTITLE8=Sheltered In The Arms Of God
TTITLE9=Satisfied
EXTD=Gospel Music
EXTT0=
EXTT1=
EXTT2=
EXTT3=
EXTT4=
EXTT5=
EXTT6=
EXTT7=
EXTT8=
EXTT9=
PLAYORDER=
